<?xml version="1.0" encoding="iso-8859-1"?>
<!-- Generator: Adobe Illustrator 16.0.0, SVG Export Plug-In . SVG Version: 6.00 Build 0)  -->
<!DOCTYPE svg PUBLIC "-//W3C//DTD SVG 1.1//EN" "http://www.w3.org/Graphics/SVG/1.1/DTD/svg11.dtd">
<svg version="1.1" id="Capa_1" xmlns="http://www.w3.org/2000/svg" xmlns:xlink="http://www.w3.org/1999/xlink" x="0px" y="0px"
	 width="94.586px" height="94.586px" viewBox="0 0 94.586 94.586" style="enable-background:new 0 0 94.586 94.586;"
	 xml:space="preserve">
<g>
	<g>
		<path d="M19.477,19.095h7.178v2.965c0,2.03,1.652,3.683,3.683,3.683h27.999c2.03,0,3.684-1.652,3.684-3.683v-2.965h7.176v14.366
			h7.027v-17.26c0-2.682-2.183-4.863-4.865-4.863H62.35v-0.15c0-2.059-1.675-3.734-3.733-3.734h-5.87V3.733
			c0-2.06-1.676-3.733-3.734-3.733h-9.35c-2.06,0-3.734,1.674-3.734,3.733v3.72h-5.87c-2.06,0-3.734,1.676-3.734,3.734v0.15h-9.008
			c-2.682,0-4.863,2.182-4.863,4.863v73.522c0,2.682,2.182,4.863,4.863,4.863h17.021V87.37H19.477V19.095z M41.66,5.102h5.353V6.79
			H41.66V5.102z"/>
		<path d="M79.035,45.731V41.21h-5.207v4.521h-4.7V41.21H63.92v4.521h-4.917V41.21h-5.206v4.521H48.59V41.21h-5.206v4.521h-3.099
			v48.854h41.847V45.731H79.035z M76.12,83.535h-29.82V79.95h29.82V83.535z M76.12,71.958h-29.82v-3.585h29.82V71.958z
			 M76.12,60.381h-29.82v-3.585h29.82V60.381z"/>
	</g>
</g>
<g>
</g>
<g>
</g>
<g>
</g>
<g>
</g>
<g>
</g>
<g>
</g>
<g>
</g>
<g>
</g>
<g>
</g>
<g>
</g>
<g>
</g>
<g>
</g>
<g>
</g>
<g>
</g>
<g>
</g>
</svg>
