<?xml version="1.0" encoding="iso-8859-1"?>
<!-- Generator: Adobe Illustrator 16.0.0, SVG Export Plug-In . SVG Version: 6.00 Build 0)  -->
<!DOCTYPE svg PUBLIC "-//W3C//DTD SVG 1.1//EN" "http://www.w3.org/Graphics/SVG/1.1/DTD/svg11.dtd">
<svg version="1.1" id="Capa_1" xmlns="http://www.w3.org/2000/svg" xmlns:xlink="http://www.w3.org/1999/xlink" x="0px" y="0px"
	 width="22px" height="22px" viewBox="0 0 22 22" style="enable-background:new 0 0 22 22;" xml:space="preserve">
<g>
	<path d="M0.4,13C0.1,12.4,0,11.7,0,11c0-3.3,2.7-6,6-6h10V1l6,5l-6,5V7H6c-2.2,0-4,1.8-4,4c0,0.2,0,0.4,0.1,0.6L0.4,13z M19.9,10.4
		c0,0.2,0.1,0.5,0.1,0.7c0,2.2-1.8,4-4,4H6V11l-6,5l6,5v-4h10c3.3,0,6-2.7,6-6c0-0.7-0.1-1.4-0.4-2L19.9,10.4z"/>
</g>
<g>
</g>
<g>
</g>
<g>
</g>
<g>
</g>
<g>
</g>
<g>
</g>
<g>
</g>
<g>
</g>
<g>
</g>
<g>
</g>
<g>
</g>
<g>
</g>
<g>
</g>
<g>
</g>
<g>
</g>
</svg>
